<?xml version="1.0" encoding="UTF-8"?>
<svg width="32px" height="32px" viewBox="0 0 32 32" version="1.1" xmlns="http://www.w3.org/2000/svg">
  <title>Little Blossoms Nursery</title>
  <g stroke="none" stroke-width="1" fill="none" fill-rule="evenodd">
    <circle fill="#FF9090" cx="16" cy="16" r="16"></circle>
    <path d="M16,8 C18.7614,8 21,10.2386 21,13 C21,15.7614 18.7614,18 16,18 C13.2386,18 11,15.7614 11,13 C11,10.2386 13.2386,8 16,8 Z" fill="#FFFFFF"></path>
    <path d="M10,16 C11.6569,16 13,17.3431 13,19 C13,20.6569 11.6569,22 10,22 C8.34315,22 7,20.6569 7,19 C7,17.3431 8.34315,16 10,16 Z" fill="#FFFFFF"></path>
    <path d="M22,16 C23.6569,16 25,17.3431 25,19 C25,20.6569 23.6569,22 22,22 C20.3431,22 19,20.6569 19,19 C19,17.3431 20.3431,16 22,16 Z" fill="#FFFFFF"></path>
    <path d="M16,20 C20.4183,20 24,22.6863 24,26 L8,26 C8,22.6863 11.5817,20 16,20 Z" fill="#FFFFFF"></path>
  </g>
</svg>