<?xml version="1.0" encoding="UTF-8"?>
<svg width="500" height="400" viewBox="0 0 500 400" fill="none" xmlns="http://www.w3.org/2000/svg">
  <!-- Background -->
  <rect width="500" height="400" fill="#F0F9FF" rx="12" />
  
  <!-- Clouds -->
  <circle cx="100" cy="100" r="30" fill="white" opacity="0.8" />
  <circle cx="130" cy="90" r="30" fill="white" opacity="0.8" />
  <circle cx="160" cy="100" r="30" fill="white" opacity="0.8" />
  
  <circle cx="350" cy="70" r="20" fill="white" opacity="0.8" />
  <circle cx="380" cy="60" r="25" fill="white" opacity="0.8" />
  <circle cx="410" cy="70" r="20" fill="white" opacity="0.8" />
  
  <!-- Nursery Building -->
  <rect x="150" y="150" width="200" height="150" rx="8" fill="#FFFFFF" stroke="#0891B2" stroke-width="3" />
  
  <!-- Roof -->
  <path d="M140 150L250 80L360 150" stroke="#0891B2" stroke-width="3" fill="#E0F2FE" />
  
  <!-- Door -->
  <rect x="225" y="250" width="50" height="50" rx="4" fill="#0891B2" />
  <circle cx="265" cy="275" r="5" fill="#FFFFFF" /> <!-- Door handle -->
  
  <!-- Windows -->
  <rect x="170" y="170" width="40" height="40" rx="4" fill="#E0F2FE" stroke="#0891B2" stroke-width="2" />
  <rect x="290" y="170" width="40" height="40" rx="4" fill="#E0F2FE" stroke="#0891B2" stroke-width="2" />
  
  <!-- Window Crossbars -->
  <line x1="170" y1="190" x2="210" y2="190" stroke="#0891B2" stroke-width="2" />
  <line x1="190" y1="170" x2="190" y2="210" stroke="#0891B2" stroke-width="2" />
  <line x1="290" y1="190" x2="330" y2="190" stroke="#0891B2" stroke-width="2" />
  <line x1="310" y1="170" x2="310" y2="210" stroke="#0891B2" stroke-width="2" />
  
  <!-- Ground -->
  <rect x="0" y="300" width="500" height="100" fill="#ECFDF5" />
  
  <!-- Trees -->
  <circle cx="100" cy="200" r="30" fill="#059669" />
  <rect x="95" y="200" width="10" height="100" fill="#854D0E" />
  
  <circle cx="400" cy="220" r="25" fill="#059669" />
  <rect x="395" y="220" width="10" height="80" fill="#854D0E" />
  
  <!-- Sun -->
  <circle cx="400" cy="70" r="30" fill="#FBBF24" opacity="0.8" />
  
  <!-- Children figures (simplified) -->
  <circle cx="150" cy="330" r="15" fill="#FB7185" /> <!-- Head -->
  <rect x="140" y="345" width="20" height="35" rx="10" fill="#FB7185" /> <!-- Body -->
  
  <circle cx="200" cy="330" r="15" fill="#60A5FA" /> <!-- Head -->
  <rect x="190" y="345" width="20" height="35" rx="10" fill="#60A5FA" /> <!-- Body -->
  
  <circle cx="250" cy="330" r="15" fill="#34D399" /> <!-- Head -->
  <rect x="240" y="345" width="20" height="35" rx="10" fill="#34D399" /> <!-- Body -->
</svg>