<?xml version="1.0" encoding="UTF-8"?>
<svg width="120" height="70" viewBox="0 0 120 70" fill="none" xmlns="http://www.w3.org/2000/svg">
  <!-- Engine -->
  <rect x="10" y="30" width="30" height="20" rx="5" fill="#5B68C0"/>
  <rect x="7" y="25" width="36" height="5" rx="2" fill="#4A56A0"/>
  <rect x="15" y="20" width="20" height="5" rx="2" fill="#4A56A0"/>
  <circle cx="15" cy="50" r="5" fill="#333333"/>
  <circle cx="35" cy="50" r="5" fill="#333333"/>
  
  <!-- Chimney -->
  <rect x="12" y="12" width="8" height="8" fill="#333333"/>
  <path d="M12 12 H20 V6 A4 4 0 0 0 12 6 V12 Z" fill="#4A56A0"/>
  
  <!-- Cabin Windows -->
  <rect x="20" y="35" width="15" height="8" rx="1" fill="#B8E3FF"/>
  
  <!-- Connecting Rods -->
  <line x1="40" y1="40" x2="50" y2="40" stroke="#333333" stroke-width="2"/>
  <line x1="80" y1="40" x2="90" y2="40" stroke="#333333" stroke-width="2"/>

  <!-- Cargo Car 1 -->
  <rect x="50" y="35" width="30" height="15" rx="3" fill="#F5A623"/>
  <circle cx="55" cy="50" r="5" fill="#333333"/>
  <circle cx="75" cy="50" r="5" fill="#333333"/>
  
  <!-- Cargo Car 2 -->
  <rect x="90" y="35" width="25" height="15" rx="3" fill="#FF707B"/>
  <circle cx="95" cy="50" r="5" fill="#333333"/>
  <circle cx="110" cy="50" r="5" fill="#333333"/>
  
  <!-- Details on Cargo Cars -->
  <rect x="55" y="37" width="20" height="5" rx="1" fill="#E09315"/>
  <rect x="95" y="37" width="15" height="5" rx="1" fill="#E85F6A"/>
  
  <!-- Smoke -->
  <circle cx="16" cy="8" r="3" fill="#CCCCCC" opacity="0.7"/>
  <circle cx="14" cy="5" r="2" fill="#CCCCCC" opacity="0.5"/>
  <circle cx="12" cy="3" r="1" fill="#CCCCCC" opacity="0.3"/>
</svg>