<?xml version="1.0" encoding="UTF-8"?>
<svg width="240" height="120" viewBox="0 0 240 120" fill="none" xmlns="http://www.w3.org/2000/svg">
  <!-- Engine -->
  <rect x="10" y="60" width="60" height="40" rx="5" fill="#7C3AED" />
  <rect x="60" y="40" width="30" height="30" rx="5" fill="#7C3AED" />
  <circle cx="25" cy="100" r="10" fill="#1E293B" />
  <circle cx="55" cy="100" r="10" fill="#1E293B" />
  <rect x="15" y="50" width="20" height="10" rx="5" fill="#F9A8D4" />
  <rect x="40" y="50" width="20" height="10" rx="5" fill="#F9A8D4" />
  
  <!-- Smoke stack -->
  <rect x="70" y="25" width="10" height="15" rx="2" fill="#7C3AED" />
  <ellipse cx="75" cy="25" rx="8" ry="5" fill="#CBD5E1" />
  <ellipse cx="75" cy="18" rx="6" ry="4" fill="#CBD5E1" />
  <ellipse cx="75" cy="12" rx="4" ry="3" fill="#CBD5E1" />
  
  <!-- First car -->
  <rect x="100" y="60" width="50" height="30" rx="5" fill="#F472B6" />
  <circle cx="110" cy="90" r="8" fill="#1E293B" />
  <circle cx="140" cy="90" r="8" fill="#1E293B" />
  <rect x="105" y="65" width="10" height="10" rx="2" fill="#FBCFE8" />
  <rect x="120" y="65" width="10" height="10" rx="2" fill="#FBCFE8" />
  <rect x="135" y="65" width="10" height="10" rx="2" fill="#FBCFE8" />
  
  <!-- Second car -->
  <rect x="170" y="60" width="50" height="30" rx="5" fill="#60A5FA" />
  <circle cx="180" cy="90" r="8" fill="#1E293B" />
  <circle cx="210" cy="90" r="8" fill="#1E293B" />
  <rect x="175" y="65" width="10" height="10" rx="2" fill="#BFDBFE" />
  <rect x="190" y="65" width="10" height="10" rx="2" fill="#BFDBFE" />
  <rect x="205" y="65" width="10" height="10" rx="2" fill="#BFDBFE" />
  
  <!-- Connectors -->
  <rect x="90" y="70" width="10" height="5" rx="2" fill="#94A3B8" />
  <rect x="160" y="70" width="10" height="5" rx="2" fill="#94A3B8" />
</svg>